<svg viewBox="0 0 89.77 106.47" xmlns="http://www.w3.org/2000/svg" data-name="Layer 2" id="Layer_2">
  <defs>
    <style>
      .cls-1 {
        fill: #e9ebc0;
      }
    </style>
  </defs>
  <g data-name="Capa 1" id="Capa_1">
    <g>
      <path d="M61.66,44.22c-2.05,2.07-4.64,3.62-6.58,5.84-4.32,4.96-6.68,13.08-6.63,19.6.02,1.91.83,3.82,3,2.61,2.41-1.35,3.87-7.57,4.3-10.19s.63-8.64,2.48-10.5c1.26-1.26,3.34-.89,3.56.98.19,1.59-1.14,3.64-1.45,5.29-.24,1.32-.69,3.71,1.39,3.28,2.01-.42,3.1-4.2,3.24-5.96.22-2.87-.96-6.23-.32-8.89.67-2.76,3.98-2.53,3.99.32,0,.88-.78,3.22.24,3.65s2.22-1.43,3.99-.34c1.3.8,1.02,2.48.22,3.54-.71.95-1.84,1.26-2.5,2.04-.85,1-1.43,3.15-2.24,4.44-2.38,3.8-5.89,4.81-8.42,7.84-.85,1.02-2.54,4.06-.04,4.19,2.57.14,5.71-4.69,7.59-6.34,1.23-1.08,3.81-3.08,5.36-1.58,1.09,1.04.84,2.5-.33,3.34-1.71,1.23-3.4,1.33-4.91,3.28-1.7,2.21-.16,1.77,1.18,2.6,1.21.75,1.14,2.34,0,3.11-2.02,1.37-6.79-.09-9.3-.11-4.09-.03-8.94,1.48-11.09,5.18-1.37,2.37-2.8,8.24,2.03,6.06,3.13-1.41,3.51-6.3,5.67-7.44,2.54-1.34,3.37,1.46,2.19,3.32.18.3.39.03.69.05,1.98.11,2.46,2,1.01,3.29-2.05,1.84-5.23,2-7.44,3.78-2.12,1.71-2.92,3.81-4.43,5.91-1.49,2.07-3.14,3.35-5.3,1.23-2.72-2.66-3.65-7.25-6.74-9.59-2.68-2.04-9.72-2.86-9.69-7.2.01-2.06,1.87-2.72,3.39-1.37,1.09.97,1.5,2.03,2.92,2.88,3.93,2.34,2.35-1.53,1.1-3.37-2.55-3.75-6.21-4.95-10.63-4.76-1.39.06-4.7.95-5.27-.9-.69-2.21,1.18-1.92,2.13-2.87,1.68-1.68-2.43-2.89-3.22-3.6-1.62-1.44-.26-3.48,1.56-3.45,2.73.05,5.36,4.19,7.32,5.91,1.19,1.05,3.17,2.48,4.81,2.47,1.37-.01,1.6-.75,1.07-1.93-.77-1.7-3.74-3.27-3.93-5.02s1.12-3.04,2.86-2.23c1.28.6,1.82,2.36,3.04,2.76.82.27,1.46-.03,2.23.54,2.11,1.55,1.04,5.46,1.19,7.76.12,1.88.77,4.55,2.36,5.71,2.23,1.62,3-.76,3.46-2.55.71-2.76.97-6.24-.04-8.94-1.76-4.69-7.33-8.44-12.26-8.79-4.07-.28-8.82,2.27-12.73.63-1.53-.64-2.94-2.52-1.64-4.04,2.07-2.43,5.65,1.88,8.27.33,1.77-1.05-.65-3.81-1.65-4.67-1.34-1.16-2.45-1.13-3.77-1.9-2.97-1.75-1.24-5.64,2.09-4.23.99.42,1.91,1.86,2.49.27.67-1.83-1.04-5.68,1.48-6.34,1.71-.45,2.52,1.55,2.74,2.89.68,4.2-1.63,8.32,2.03,11.84,1.59,1.53,4.23,2.14,4.17-.89-.06-3.35-3.37-7.85-3.04-10.59.17-1.36,1.6-1.74,2.74-1.22,2.85,1.31,4.23,10.89,5.4,13.89.66,1.7,2.45,4.81,4.26,5.45,2.6.92,2.89-1.94,2.74-3.75-.25-3.12-3.55-5.48-3.79-8.56-.2-2.59.74-4.24-1.03-6.54-1.48-1.93-3.74-3.2-6.03-3.93-1.64-.52-4.23-.64-5.55-1.26-1.47-.69-1.28-2.72-.12-3.65,2.52-2,4.39.68,6.67,1.25,3.26.82.8-2.94.56-4.22-.42-2.3,2.28-3.91,3.98-2.22,2.12,2.11,1.48,7.6,2.42,10.43.63,1.88,2.55,3.27,3.21,5.36.59,1.86.28,4.22.82,5.86.84,2.56,3.23.73,3.71-1.14,1.33-5.16-4.16-12.5-4.12-18.11.01-1.82,1.07-3.6,3.13-3,2.61.76.74,4.69,1.81,6.39,1.55,2.48,2.7-2.01,3.28-2.86,1.47-2.16,4.45-1.01,3.98,1.71-.33,1.95-3.55,4.42-4.39,6.96-.58,1.74-1.06,5.5,1.93,4.33,2.36-.92,2.79-4.2,3.97-5.99,1.07-1.62,3.35-1.56,3.99.34.73,2.14-1.45,4.81-2.88,6.25Z" class="cls-1"></path>
      <path d="M20.58,81.34c.65-.13,1.05.02,1.55.41,1.25.97,3.05,4.13,4.41,5.55.74.77,1.75,1.67,2.59,2.32s2.52,1.52,3.2,2.22c1.69,1.77-.8,3.18-1.68,4.34-.83,1.1-1.58,3.21-1.59,4.59-.01,1.51,1.21,5.11-1.09,5.58-3.06.62-6.51-1.7-8.28-4.01-3.95-5.15-3.81-12.59-1.19-18.31.39-.84,1.13-2.5,2.09-2.7Z" class="cls-1"></path>
      <path d="M71.34,84.04c2.63,5.72,2.77,13.16-1.19,18.31-1.77,2.31-5.23,4.63-8.28,4.01-2.3-.47-1.08-4.07-1.09-5.58-.01-1.38-.77-3.49-1.59-4.59-.88-1.17-3.37-2.57-1.68-4.34.68-.71,2.31-1.54,3.2-2.22s1.86-1.55,2.59-2.32c1.36-1.42,3.16-4.58,4.41-5.55.5-.39.9-.54,1.55-.41.96.2,1.7,1.86,2.09,2.7Z" class="cls-1"></path>
      <path d="M50.95,4.02s-2.4-4.02-6.25-4.02-6.25,4.02-6.25,4.02c-5.38,9.06-1.51,13.58-1.51,13.58,1.17,1.42,1.09,2.9.91,3.73-.2.92.45,1.82,1.38,1.91.86.09,1.74-.16,1.74-.16,1.56-.6,3.73-.51,3.73-.51,0,0,2.17-.09,3.73.51,0,0,.88.25,1.74.16.94-.1,1.58-.99,1.38-1.91-.18-.83-.26-2.31.91-3.73,0,0,3.87-4.52-1.51-13.58Z" class="cls-1"></path>
      <path d="M61.5,28.59s.89-4.83,9.27-3.75c0,0,15.34,1.13,18.81,22.11,0,0,1.13,8.27-2.21,9.53,0,0-3.41,1.19-5.8-5.67,0,0-3.14-8.24-7.37-8.59,0,0-3.91.01-5.06-3.18,0,0-2.26-5.39-6.15-7.77,0,0-2-1.02-1.49-2.67Z" class="cls-1"></path>
      <path d="M28.26,28.59s-.89-4.83-9.27-3.75c0,0-15.34,1.13-18.81,22.11,0,0-1.13,8.27,2.21,9.53,0,0,3.41,1.19,5.8-5.67,0,0,3.14-8.24,7.37-8.59,0,0,3.91.01,5.06-3.18,0,0,2.26-5.39,6.15-7.77,0,0,2-1.02,1.49-2.67Z" class="cls-1"></path>
    </g>
  </g>
</svg>