<svg height="500" width="500" viewBox="0 0 500 500" xmlns="http://www.w3.org/2000/svg" version="1.2">
	<style>
		.s0 { fill: none;stroke: #e85b1a;stroke-miterlimit:10;stroke-width: 2 } 
	</style>
	<path d="m363.88 124.7c-13.77 13.91-31.16 24.32-44.11 39.19-28.97 33.28-44.83 87.77-44.45 131.53 0.1 12.81 5.59 25.6 20.11 17.49 16.19-9.07 26-50.82 28.89-68.37 2.89-17.55 4.23-57.99 16.64-70.48 8.43-8.48 22.39-6 23.89 6.55 1.28 10.7-7.65 24.4-9.71 35.52-1.64 8.86-4.6 24.88 9.3 21.99 13.49-2.81 20.84-28.19 21.75-39.99 1.47-19.23-6.47-41.78-2.14-59.65 4.5-18.51 26.72-17.01 26.75 2.14 0 5.94-5.21 21.59 1.63 24.5 6.66 2.84 14.9-9.57 26.81-2.27 8.72 5.35 6.82 16.64 1.44 23.78-4.79 6.36-12.33 8.42-16.77 13.67-5.67 6.71-9.6 21.13-15.03 29.8-15.97 25.52-39.51 32.28-56.5 52.61-5.7 6.85-17.01 27.23-0.24 28.12 17.28 0.91 38.33-31.49 50.96-42.51 8.29-7.25 25.54-20.65 36-10.59 7.28 7.01 5.67 16.77-2.19 22.39-11.5 8.21-22.82 8.9-32.93 22.04-11.42 14.84-1.04 11.9 7.92 17.47 8.13 5.02 7.65 15.7 0 20.89-13.59 9.17-45.56-0.62-62.43-0.75-27.42-0.22-60 9.92-74.39 34.77-9.18 15.86-18.81 55.29 13.61 40.69 21-9.47 23.54-42.29 38.04-49.92 17.01-8.96 22.6 9.82 14.68 22.29 1.23 2.03 2.63 0.21 4.6 0.32 13.3 0.69 16.54 13.4 6.8 22.09-13.78 12.33-35.12 13.43-49.89 25.39-14.23 11.5-19.61 25.6-29.69 39.64-9.98 13.88-21.05 22.47-35.58 8.24-18.24-17.87-24.5-48.63-45.2-64.33-18.01-13.7-65.22-19.18-65.06-48.29 0.08-13.83 12.55-18.27 22.74-9.2 7.3 6.48 10.08 13.62 19.61 19.29 26.37 15.73 15.78-10.25 7.38-22.6-17.09-25.15-41.65-33.2-71.34-31.92-9.34 0.4-31.51 6.34-35.36-6.02-4.63-14.84 7.91-12.89 14.28-19.25 11.29-11.29-16.29-19.37-21.61-24.13-10.84-9.69-1.77-23.38 10.48-23.17 18.33 0.3 35.98 28.09 49.11 39.7 8 7.06 21.27 16.66 32.32 16.56 9.23-0.08 10.75-5.06 7.19-12.92-5.16-11.45-25.09-21.94-26.37-33.68-1.31-12.23 7.49-20.41 19.18-14.95 8.61 4.01 12.2 15.86 20.38 18.53 5.51 1.8 9.76-0.21 15.01 3.61 14.15 10.38 6.98 36.62 8 52.06 0.82 12.62 5.16 30.55 15.83 38.3 14.98 10.89 20.14-5.05 23.22-17.09 4.76-18.54 6.47-41.89-0.29-59.97-11.8-31.46-49.17-56.66-82.29-58.96-27.31-1.9-59.19 15.25-85.43 4.26-10.27-4.31-19.72-16.88-11-27.13 13.91-16.31 37.93 12.66 55.48 2.2 11.88-7.07-4.36-25.58-11.05-31.35-9.01-7.79-16.47-7.57-25.27-12.76-19.93-11.72-8.32-37.83 14.01-28.41 6.66 2.81 12.81 12.49 16.72 1.82 4.49-12.28-6.98-38.12 9.9-42.53 11.45-3 16.88 10.4 18.35 19.39 4.57 28.17-10.97 55.83 13.59 79.45 10.67 10.24 28.35 14.33 28-5.97-0.4-22.47-22.63-52.64-20.38-71.05 1.12-9.09 10.75-11.69 18.38-8.18 19.1 8.77 28.38 73.1 36.22 93.19 4.46 11.42 16.45 32.32 28.56 36.57 17.44 6.15 19.37-13.05 18.41-25.17-1.66-20.95-23.81-36.76-25.44-57.46-1.37-17.41 4.97-28.43-6.88-43.87-9.92-12.94-25.11-21.45-40.47-26.35-10.97-3.5-28.35-4.25-37.23-8.45-9.87-4.65-8.62-18.24-0.78-24.47 16.93-13.46 29.48 4.57 44.78 8.39 21.88 5.49 5.32-19.71 3.77-28.27-2.81-15.43 15.3-26.24 26.72-14.87 14.21 14.18 9.9 51.04 16.27 70 4.22 12.63 17.09 21.94 21.56 35.95 3.98 12.52 1.9 28.33 5.51 39.32 5.64 17.18 21.66 4.93 24.9-7.62 8.88-34.61-27.92-83.86-27.66-121.55 0.08-12.2 7.2-24.15 21-20.14 17.49 5.08 4.98 31.43 12.12 42.85 10.43 16.61 18.08-13.48 21.99-19.18 9.89-14.47 29.85-6.77 26.72 11.5-2.25 13.11-23.81 29.7-29.43 46.68-3.87 11.72-7.08 36.92 12.98 29.05 15.81-6.2 18.72-28.17 26.64-40.15 7.2-10.89 22.44-10.48 26.78 2.3 4.86 14.39-9.74 32.29-19.32 41.97z" class="s0"></path>
</svg>