<svg height="500" width="450" viewBox="0 0 450 500" xmlns="http://www.w3.org/2000/svg" version="1.2">
	<style>
		.s0 { fill: #e9ebc0 } 
	</style>
	<path d="m333.63 130.43c-13.13 13.28-29.73 23.18-42.08 37.38-27.63 31.73-42.75 83.7-42.4 125.45 0.1 12.22 5.34 24.42 19.18 16.68 15.44-8.65 24.78-48.47 27.54-65.22 2.78-16.85 4.04-55.3 15.87-67.22 8.03-8.09 21.35-5.7 22.77 6.26 1.22 10.2-7.3 23.28-9.25 33.89-1.55 8.44-4.39 23.73 8.88 20.96 12.85-2.68 19.86-26.9 20.73-38.14 1.42-18.34-6.16-39.85-2.03-56.88 4.28-17.66 25.48-16.22 25.5 2.05 0.01 5.65-4.98 20.58 1.57 23.37 6.35 2.7 14.2-9.13 25.56-2.17 8.31 5.1 6.5 15.88 1.38 22.69-4.57 6.06-11.76 8.03-16.01 13.03-5.42 6.4-9.16 20.16-14.33 28.42-15.22 24.33-37.69 30.79-53.87 50.19-5.44 6.53-16.23 25.96-0.22 26.8 16.47 0.86 36.56-30.03 48.59-40.55 7.9-6.91 24.35-19.7 34.33-10.11 6.95 6.68 5.4 16-2.11 21.36-10.96 7.84-21.76 8.5-31.41 21.03-10.89 14.15-1 11.34 7.55 16.65 7.75 4.8 7.29 14.97-0.02 19.91-12.95 8.75-43.44-0.59-59.53-0.71-26.15-0.2-57.23 9.45-70.95 33.17-8.75 15.14-17.92 52.74 12.99 38.8 20.02-9.03 22.44-40.32 36.28-47.6 16.24-8.55 21.56 9.36 14.01 21.25 1.17 1.94 2.51 0.21 4.4 0.31 12.68 0.68 15.76 12.77 6.49 21.08-13.14 11.76-33.48 12.8-47.59 24.2-13.57 10.96-18.7 24.4-28.33 37.81-9.51 13.25-20.07 21.44-33.93 7.86-17.39-17.04-23.37-46.37-43.1-61.36-17.18-13.05-62.2-18.3-62.04-46.04 0.08-13.19 11.97-17.43 21.69-8.79 6.95 6.19 9.61 12.99 18.7 18.41 25.15 14.98 15.06-9.77 7.04-21.57-16.29-23.99-39.73-31.64-68.04-30.43-8.9 0.38-30.05 6.05-33.72-5.74-4.4-14.15 7.55-12.31 13.63-18.38 10.76-10.78-15.54-18.48-20.62-23.02-10.34-9.25-1.68-22.3 10.01-22.11 17.46 0.29 34.32 26.79 46.85 37.85 7.63 6.74 20.28 15.9 30.81 15.8 8.79-0.09 10.25-4.83 6.86-12.34-4.93-10.91-23.94-20.92-25.15-32.11-1.26-11.67 7.16-19.47 18.29-14.27 8.22 3.84 11.65 15.13 19.44 17.68 5.25 1.71 9.31-0.21 14.3 3.44 13.5 9.9 6.66 34.92 7.63 49.64 0.8 12.05 4.91 29.13 15.1 36.53 14.29 10.37 19.2-4.84 22.14-16.3 4.54-17.67 6.18-39.94-0.28-57.19-11.25-30-46.88-54.03-78.48-56.23-26.03-1.81-56.45 14.55-81.48 4.05-9.79-4.11-18.82-16.11-10.5-25.86 13.28-15.57 36.18 12.05 52.92 2.09 11.33-6.74-4.15-24.39-10.53-29.9-8.59-7.43-15.7-7.23-24.12-12.18-19.02-11.19-7.92-36.08 13.38-27.09 6.35 2.68 12.22 11.92 15.95 1.75 4.3-11.7-6.66-36.36 9.45-40.57 10.91-2.85 16.1 9.91 17.5 18.5 4.38 26.87-10.45 53.25 12.97 75.76 10.17 9.77 27.05 13.67 26.71-5.69-0.38-21.43-21.59-50.21-19.43-67.76 1.06-8.69 10.25-11.14 17.51-7.81 18.22 8.36 27.08 69.73 34.55 88.88 4.25 10.89 15.69 30.8 27.23 34.87 16.63 5.87 18.47-12.43 17.55-24-1.59-19.98-22.7-35.04-24.25-54.79-1.31-16.6 4.74-27.11-6.57-41.83-9.47-12.35-23.95-20.46-38.58-25.14-10.47-3.35-27.05-4.07-35.5-8.06-9.41-4.44-8.22-17.41-0.74-23.35 16.14-12.83 28.1 4.36 42.69 8.01 20.88 5.23 5.09-18.79 3.6-26.98-2.68-14.72 14.6-25.03 25.47-14.18 13.56 13.51 9.45 48.66 15.52 66.75 4.04 12.05 16.3 20.91 20.56 34.29 3.8 11.94 1.8 27.01 5.25 37.5 5.38 16.39 20.67 4.7 23.75-7.28 8.48-33-26.63-79.96-26.39-115.91 0.08-11.64 6.86-23.04 20.03-19.22 16.67 4.84 4.74 29.98 11.57 40.87 9.94 15.84 17.25-12.85 20.97-18.29 9.44-13.81 28.48-6.46 25.49 10.97-2.14 12.49-22.71 28.3-28.07 44.52-3.7 11.17-6.76 35.19 12.37 27.69 15.07-5.91 17.85-26.86 25.41-38.3 6.87-10.39 21.42-10 25.55 2.2 4.64 13.72-9.28 30.79-18.41 40.02z" class="s0" id="&lt;Compound Path&gt;"></path>
</svg>