<svg height="700" width="1200" viewBox="0 0 1200 700" xmlns="http://www.w3.org/2000/svg" version="1.2">
	<style>
		.s0 { fill: #e9ebc0 } 
	</style>
	<g id="&lt;Group&gt;">
		<g id="&lt;Group&gt;">
			<g id="&lt;Group&gt;">
				<path d="m684.48 171.99v21.41h-56.89v-21.41zm-15.36 83.69q-14.55 0-21.66-6.94-7.11-6.95-7.11-19.86v-82.39h25.5v76.01q0 4.91 1.8 7.19 1.79 2.3 5.55 2.3 1.47-0.01 3.44-0.74 1.96-0.74 3.59-1.88l8.83 18.63q-3.92 3.27-9.4 5.48-5.48 2.2-10.54 2.2z" class="s0" id="&lt;Compound Path&gt;"></path>
				<path d="m735.97 255.68q-12.92 0-22.73-5.47-9.8-5.47-15.44-15.12-5.64-9.64-5.64-22.23 0-12.58 5.47-22.23 5.48-9.65 15.37-15.12 9.89-5.48 22.47-5.48 12.91 0 22.81 5.48 9.89 5.47 15.36 15.12 5.48 9.65 5.48 22.23 0 12.59-5.48 22.23-5.48 9.65-15.28 15.12-9.81 5.47-22.39 5.47zm0-23.53q4.9 0 8.74-2.46 3.84-2.45 6.05-6.78 2.2-4.33 2.2-10.05 0-5.72-2.2-10.06-2.21-4.32-6.13-6.78-3.93-2.45-8.99-2.45-5.07 0-8.99 2.45-3.92 2.46-6.13 6.78-2.21 4.34-2.21 10.06 0 5.72 2.21 10.05 2.2 4.33 6.21 6.78 4 2.46 9.24 2.46z" class="s0" fill-rule="evenodd" id="&lt;Compound Path&gt;"></path>
				<path d="m813.77 171.99v81.74h-25.5v-81.74zm-6.7 39.4q0-13.24 5.31-22.07 5.31-8.83 13.41-13.24 8.09-4.41 16.91-4.42v24.85q-7.51 0-14.14 1.64-6.62 1.63-10.7 4.98-4.09 3.35-4.09 8.59z" class="s0" id="&lt;Compound Path&gt;"></path>
				<path d="m907.11 171.99v21.41h-56.88v-21.41zm-15.37 83.69q-14.55 0-21.66-6.94-7.11-6.95-7.11-19.86v-82.39h25.5v76.01q0 4.91 1.8 7.19 1.8 2.3 5.56 2.3 1.47-0.01 3.43-0.74 1.96-0.74 3.6-1.88l8.82 18.63q-3.92 3.27-9.4 5.48-5.48 2.2-10.54 2.2z" class="s0" id="&lt;Compound Path&gt;"></path>
				<path d="m948.62 171.99v41.85h-25.5v-41.85zm0 41.85q0.01 6.38 1.48 10.3 1.47 3.92 4.25 5.72 2.78 1.8 6.53 1.96 7.36 0 11.12-4.17 3.76-4.17 3.76-12.5h7.68q0 12.91-3.92 21.98-3.92 9.08-10.71 13.82-6.78 4.73-15.77 4.73-9.81 0.01-16.51-4-6.7-4-10.05-12.18-3.35-8.17-3.35-20.92v-4.74zm28.61 39.89l-1.48-15.04v-66.7h25.51v81.74z" class="s0" id="&lt;Compound Path&gt;"></path>
				<path d="m1047.36 250.62q-11.44 0-19.7-4.66-8.26-4.66-12.75-13.32-4.5-8.67-4.49-20.6-0.01-13.08 4.49-22.39 4.49-9.32 12.75-14.47 8.26-5.15 19.7-5.15 9.48 0 16.43 5.15 4.81 3.56 8.09 9.2v-12.39h25.5v72.42q0 13.73-5.23 23.7-5.24 9.97-15.04 15.29-9.81 5.31-23.87 5.31-9.97 0-17.41-1.31-7.44-1.31-12.66-3.44-5.24-2.12-8.67-4.73l9.97-20.27q2.62 1.14 6.22 2.86 3.59 1.71 8.82 3.02 5.23 1.31 12.59 1.31 5.72 0 10.22-2.21 4.49-2.21 7.02-6.87 2.54-4.65 2.54-11.68v-7.72q-3.28 5.07-8.09 8.29-6.95 4.66-16.43 4.66zm7.52-21.25q4.9 0 8.42-2.37 3.51-2.37 5.39-6.46 1.88-4.08 1.88-9.32 0-5.55-1.96-9.64-1.96-4.08-5.48-6.37-3.51-2.29-8.42-2.29-4.74 0-8.41 2.29-3.68 2.29-5.72 6.37-2.05 4.09-2.21 9.64 0.16 5.24 2.21 9.32 2.04 4.09 5.8 6.46 3.76 2.37 8.5 2.37z" class="s0" fill-rule="evenodd" id="&lt;Compound Path&gt;"></path>
				<path d="m1137.1 255.68q-14.55 0.01-22.56-6.53-8.01-6.54-8.01-18.47 0-12.92 8.33-19.29 8.34-6.38 23.38-6.38h22.4v16.35h-12.75q-8.18 0-11.77 2.29-3.6 2.29-3.6 6.37 0 2.95 2.7 4.66 2.69 1.72 7.44 1.72 4.73 0 8.33-2.05 3.6-2.04 5.64-5.47 2.05-3.43 2.05-7.52h6.37q0 16.35-6.87 25.34-6.86 8.99-21.08 8.98zm22.23-1.95l-0.65-17.66v-23.05q0-6.53-1.15-11.44-1.15-4.9-4.08-7.68-2.95-2.78-8.83-2.78-4.58 0-8.01 2.12-3.44 2.13-5.89 5.89l-22.23-7.36q2.78-6.04 7.6-10.95 4.82-4.9 11.85-7.85 7.03-2.94 16.35-2.94 12.75 0 21.58 4.74 8.83 4.75 13.24 13.24 4.41 8.5 4.41 20.11l-0.32 45.61z" class="s0" id="&lt;Compound Path&gt;"></path>
				<path d="m674.67 395.31q-13.08 0-23.29-5.48-10.22-5.47-15.94-15.2-5.73-9.72-5.72-22.15-0.01-12.58 5.72-22.23 5.72-9.64 15.77-15.12 10.05-5.47 23.13-5.47 12.58 0 23.05 6.37 10.46 6.37 15.04 18.47l-24.19 8.17q-1.8-3.92-5.97-6.45-4.17-2.54-9.24-2.54-5.06 0-8.91 2.37-3.84 2.37-6.04 6.62-2.21 4.26-2.21 9.81 0 5.56 2.21 9.73 2.2 4.17 6.21 6.62 4 2.45 9.07 2.45 5.06 0 9.16-2.62 4.08-2.61 6.04-6.86l24.2 8.17q-4.75 12.26-15.12 18.8-10.39 6.54-22.97 6.54z" class="s0" id="&lt;Compound Path&gt;"></path>
				<path d="m759.83 395.31q-12.91 0-22.72-5.48-9.81-5.47-15.45-15.12-5.64-9.64-5.64-22.23 0-12.58 5.48-22.23 5.47-9.64 15.36-15.12 9.89-5.47 22.48-5.47 12.91 0 22.8 5.47 9.89 5.48 15.37 15.12 5.47 9.65 5.47 22.23 0 12.59-5.47 22.23-5.48 9.65-15.28 15.12-9.81 5.48-22.4 5.48zm0-23.54q4.9 0 8.75-2.45 3.83-2.45 6.04-6.78 2.21-4.33 2.21-10.06 0-5.72-2.21-10.05-2.2-4.33-6.12-6.78-3.93-2.46-9-2.46-5.06 0-8.99 2.46-3.92 2.45-6.13 6.78-2.21 4.33-2.21 10.05 0 5.73 2.21 10.06 2.21 4.33 6.21 6.78 4.01 2.45 9.24 2.45z" class="s0" fill-rule="evenodd" id="&lt;Compound Path&gt;"></path>
				<path d="m837.64 311.61v81.74h-25.5v-81.74zm-6.7 39.4q-0.01-13.24 5.31-22.07 5.31-8.83 13.4-13.24 8.09-4.41 16.92-4.41v24.84q-7.52 0.01-14.14 1.64-6.62 1.64-10.71 4.98-4.08 3.36-4.08 8.59z" class="s0" id="&lt;Compound Path&gt;"></path>
				<path d="m900.24 395.31q-14.55 0-22.55-6.54-8.02-6.53-8.01-18.47 0-12.91 8.33-19.29 8.34-6.37 23.37-6.37h22.4v16.34h-12.75q-8.17 0-11.77 2.29-3.6 2.29-3.6 6.38 0 2.94 2.7 4.65 2.7 1.72 7.44 1.72 4.74 0 8.34-2.04 3.59-2.05 5.64-5.48 2.04-3.43 2.04-7.52h6.37q0 16.35-6.86 25.34-6.87 8.99-21.09 8.99zm22.23-1.96l-0.65-17.66v-23.05q0-6.53-1.15-11.44-1.14-4.9-4.08-7.68-2.94-2.78-8.83-2.78-4.58 0-8.01 2.13-3.43 2.12-5.88 5.88l-22.24-7.35q2.78-6.05 7.61-10.96 4.82-4.9 11.85-7.84 7.02-2.95 16.35-2.94 12.74 0 21.57 4.73 8.83 4.75 13.24 13.25 4.41 8.5 4.42 20.1l-0.33 45.61z" class="s0" id="&lt;Compound Path&gt;"></path>
				<path d="m984.43 278.92v114.43h-25.5v-114.43z" class="s0" fill-rule="evenodd" id="&lt;Compound Path&gt;"></path>
				<path d="m666.66 529.87q-11.44 0-19.7-4.66-8.26-4.66-12.75-13.32-4.5-8.67-4.49-20.6-0.01-13.08 4.49-22.4 4.49-9.31 12.75-14.46 8.26-5.15 19.7-5.15 9.48 0 16.43 5.15 4.81 3.56 8.09 9.2v-12.39h25.5v72.42q0 13.72-5.23 23.7-5.24 9.97-15.04 15.28-9.81 5.31-23.87 5.31-9.97 0-17.41-1.31-7.44-1.3-12.67-3.42-5.23-2.13-8.66-4.75l9.97-20.27q2.62 1.15 6.22 2.86 3.59 1.72 8.82 3.03 5.23 1.31 12.59 1.31 5.72 0 10.22-2.21 4.49-2.21 7.02-6.87 2.54-4.65 2.54-11.69v-7.71q-3.28 5.06-8.09 8.29-6.95 4.66-16.43 4.66zm7.52-21.25q4.9 0 8.42-2.37 3.51-2.37 5.39-6.46 1.88-4.08 1.88-9.32 0-5.55-1.96-9.64-1.96-4.09-5.48-6.38-3.51-2.28-8.42-2.28-4.74 0-8.42 2.28-3.67 2.29-5.72 6.38-2.04 4.09-2.2 9.64 0.16 5.24 2.2 9.32 2.04 4.09 5.81 6.46 3.76 2.37 8.5 2.37z" class="s0" fill-rule="evenodd" id="&lt;Compound Path&gt;"></path>
				<path d="m753.13 534.94q-14.55 0-22.56-6.54-8.01-6.54-8.01-18.48 0-12.91 8.34-19.29 8.33-6.37 23.37-6.37h22.4v16.35h-12.75q-8.18 0-11.77 2.28-3.6 2.3-3.6 6.38 0 2.94 2.7 4.66 2.7 1.72 7.44 1.72 4.74 0 8.33-2.05 3.6-2.04 5.64-5.47 2.05-3.44 2.05-7.52h6.37q0 16.35-6.86 25.33-6.87 9-21.09 9zm22.23-1.97l-0.65-17.65v-23.05q0-6.54-1.15-11.44-1.14-4.91-4.08-7.69-2.95-2.77-8.83-2.78-4.58 0.01-8.01 2.13-3.44 2.13-5.88 5.88l-22.24-7.35q2.78-6.05 7.6-10.95 4.82-4.91 11.86-7.85 7.02-2.94 16.34-2.94 12.75 0 21.58 4.74 8.83 4.74 13.24 13.24 4.41 8.5 4.41 20.11l-0.32 45.6z" class="s0" id="&lt;Compound Path&gt;"></path>
				<path d="m840.58 451.24v81.73h-25.5v-81.73zm-6.7 39.39q0-13.23 5.31-22.06 5.31-8.83 13.41-13.24 8.09-4.42 16.91-4.42v24.85q-7.51 0-14.14 1.63-6.62 1.64-10.7 4.99-4.09 3.35-4.09 8.58z" class="s0" id="&lt;Compound Path&gt;"></path>
				<path d="m912.83 534.94q-11.44 0-19.7-5.16-8.26-5.14-12.75-14.79-4.5-9.64-4.49-22.88-0.01-13.41 4.49-22.97 4.49-9.56 12.75-14.71 8.26-5.15 19.7-5.15 10.13 0 17.08 5.15 3.52 2.61 6.13 6.34v-42.22h25.5v114.42h-24.35l-0.76-10.11q-2.74 4.13-6.52 6.92-6.95 5.16-17.08 5.16zm6.7-23.54q4.74 0 8.5-2.45 3.76-2.46 5.88-6.79 2.13-4.33 2.13-10.05 0-5.72-2.13-10.06-2.12-4.33-5.88-6.78-3.76-2.45-8.66-2.45-4.91 0-8.67 2.45-3.76 2.45-5.96 6.78-2.21 4.34-2.37 10.06 0.16 5.72 2.37 10.05 2.2 4.33 6.04 6.79 3.85 2.45 8.75 2.45z" class="s0" fill-rule="evenodd" id="&lt;Compound Path&gt;"></path>
				<path d="m1017.45 534.94q-12.75 0-22.56-5.48-9.81-5.47-15.37-15.12-5.56-9.64-5.55-22.23-0.01-12.75 5.63-22.4 5.64-9.64 15.45-15.03 9.81-5.4 22.72-5.4 11.61 0 20.93 5.56 9.31 5.56 14.79 16.51 5.47 10.95 5.48 27.29h-58.5q0.47 3.69 2.1 6.71 2.29 4.25 6.38 6.46 4.08 2.2 9.15 2.2 6.05 0 10.22-2.7 4.16-2.69 5.8-6.78l22.56 7.68q-3.28 7.69-9.24 12.75-5.97 5.07-13.65 7.52-7.68 2.46-16.34 2.46zm-16.31-53.29h-2.82l2.62 3.26q0-1.73 0.2-3.26zm31.3 0q0.21 1.53 0.21 3.26l2.29-3.26zm-2.25-6.38q-2.45-3.6-6.05-5.15-3.6-1.55-7.2-1.55-3.59 0-7.27 1.55-3.68 1.55-6.21 5.15-1.81 2.57-2.32 6.38h31.3q-0.5-3.81-2.25-6.38z" class="s0" fill-rule="evenodd" id="&lt;Compound Path&gt;"></path>
				<path d="m1069.76 532.97v-81.73h24.02l1.48 15.04v66.69zm52.63-41.84q0-6.54-1.47-10.38-1.47-3.84-4.17-5.64-2.69-1.8-6.62-1.97-7.35-0.16-11.11 4.01-3.76 4.17-3.76 12.67h-7.68q-0.01-12.92 3.92-21.99 3.92-9.07 10.71-13.81 6.78-4.74 15.77-4.74 9.8 0 16.51 4.01 6.7 4 10.05 12.17 3.35 8.18 3.35 20.93v4.74zm25.5 0v41.84h-25.5v-41.84z" class="s0" id="&lt;Compound Path&gt;"></path>
			</g>
		</g>
		<g id="&lt;Group&gt;">
			<path d="m389.76 295.31c-12.4 12.54-28.08 21.9-39.75 35.31-26.1 29.98-40.39 79.07-40.05 118.51 0.09 11.54 5.04 23.07 18.11 15.76 14.59-8.17 23.42-45.79 26.02-61.61 2.63-15.92 3.82-52.24 14.99-63.5 7.59-7.65 20.17-5.39 21.52 5.91 1.15 9.64-6.9 21.99-8.74 32.01-1.47 7.97-4.15 22.42 8.38 19.81 12.14-2.54 18.77-25.41 19.59-36.04 1.34-17.32-5.82-37.65-1.92-53.73 4.04-16.68 24.08-15.32 24.09 1.94 0.01 5.34-4.7 19.44 1.48 22.07 6 2.55 13.41-8.62 24.15-2.04 7.85 4.81 6.14 15 1.3 21.42-4.31 5.73-11.11 7.59-15.12 12.32-5.12 6.04-8.66 19.04-13.54 26.85-14.38 22.98-35.6 29.09-50.89 47.41-5.14 6.16-15.33 24.52-0.21 25.32 15.56 0.81 34.54-28.37 45.9-38.31 7.47-6.53 23.01-18.61 32.43-9.55 6.57 6.31 5.11 15.11-1.98 20.18-10.36 7.41-20.56 8.03-29.67 19.86-10.3 13.37-0.95 10.72 7.13 15.73 7.31 4.54 6.88 14.15-0.02 18.81-12.24 8.27-41.05-0.56-56.24-0.67-24.71-0.18-54.06 8.93-67.03 31.34-8.27 14.3-16.93 49.82 12.28 36.65 18.91-8.53 21.2-38.09 34.27-44.97 15.34-8.07 20.36 8.84 13.24 20.08 1.09 1.83 2.37 0.2 4.15 0.29 11.97 0.64 14.89 12.07 6.13 19.91-12.41 11.11-31.63 12.1-44.96 22.86-12.82 10.36-17.66 23.06-26.76 35.73-8.99 12.51-18.96 20.25-32.05 7.42-16.43-16.1-22.08-43.8-40.72-57.96-16.23-12.33-58.76-17.29-58.61-43.5 0.07-12.46 11.31-16.47 20.49-8.3 6.57 5.84 9.08 12.26 17.67 17.38 23.75 14.16 14.22-9.22 6.65-20.36-15.39-22.67-37.53-29.9-64.28-28.75-8.4 0.36-28.38 5.71-31.85-5.43-4.16-13.37 7.13-11.62 12.87-17.36 10.17-10.18-14.67-17.46-19.48-21.75-9.76-8.73-1.58-21.07 9.46-20.88 16.5 0.27 32.42 25.3 44.26 35.75 7.21 6.37 19.16 15.02 29.1 14.92 8.31-0.08 9.69-4.55 6.48-11.64-4.65-10.31-22.61-19.78-23.75-30.35-1.19-11.02 6.76-18.38 17.28-13.47 7.76 3.63 11 14.29 18.36 16.69 4.96 1.63 8.8-0.19 13.51 3.26 12.75 9.35 6.29 32.98 7.21 46.89 0.75 11.38 4.64 27.52 14.26 34.51 13.5 9.8 18.14-4.57 20.92-15.39 4.29-16.7 5.84-37.74-0.27-54.03-10.62-28.34-44.29-51.05-74.14-53.12-24.59-1.71-53.33 13.75-76.97 3.82-9.25-3.88-17.78-15.21-9.91-24.43 12.54-14.7 34.17 11.39 49.98 1.98 10.71-6.37-3.92-23.04-9.94-28.25-8.12-7.02-14.84-6.83-22.79-11.51-17.96-10.56-7.48-34.08 12.64-25.59 6 2.54 11.54 11.27 15.07 1.65 4.06-11.05-6.29-34.34 8.92-38.32 10.31-2.69 15.22 9.37 16.54 17.48 4.13 25.39-9.87 50.31 12.25 71.57 9.61 9.23 25.56 12.91 25.23-5.38-0.36-20.24-20.39-47.43-18.36-64.01 1.01-8.21 9.69-10.52 16.55-7.37 17.21 7.89 25.58 65.86 32.63 83.95 4.02 10.3 14.83 29.11 25.73 32.95 15.71 5.54 17.45-11.75 16.58-22.67-1.5-18.88-21.44-33.11-22.91-51.76-1.24-15.68 4.48-25.61-6.2-39.52-8.95-11.66-22.63-19.33-36.45-23.75-9.89-3.17-25.55-3.85-33.54-7.62-8.89-4.19-7.76-16.44-0.7-22.05 15.25-12.12 26.55 4.11 40.33 7.56 19.73 4.94 4.81-17.75 3.4-25.48-2.53-13.91 13.79-23.65 24.07-13.4 12.8 12.77 8.92 45.97 14.66 63.06 3.81 11.38 15.39 19.75 19.42 32.4 3.59 11.27 1.7 25.51 4.96 35.42 5.08 15.48 19.52 4.44 22.43-6.88 8.01-31.17-25.15-75.54-24.92-109.5 0.07-11 6.48-21.76 18.92-18.15 15.75 4.57 4.48 28.32 10.92 38.6 9.39 14.97 16.3-12.13 19.82-17.27 8.91-13.05 26.9-6.11 24.08 10.36-2.03 11.8-21.46 26.74-26.53 42.06-3.48 10.55-6.38 33.24 11.69 26.16 14.24-5.58 16.86-25.37 24.01-36.19 6.49-9.81 20.23-9.44 24.13 2.08 4.39 12.97-8.76 29.09-17.39 37.81z" class="s0" id="&lt;Compound Path&gt;"></path>
			<path d="m141.39 519.78c3.92-0.81 6.36 0.12 9.37 2.47 7.54 5.88 18.43 24.95 26.64 33.56 4.45 4.67 10.57 10.08 15.67 14.05 5.35 4.16 15.23 9.16 19.32 13.45 10.23 10.72-4.86 19.2-10.15 26.25-5 6.66-9.57 19.43-9.64 27.75-0.08 9.13 7.32 30.92-6.59 33.75-18.47 3.75-39.36-10.3-50.07-24.26-23.91-31.15-23.05-76.13-7.18-110.71 2.33-5.08 6.8-15.12 12.63-16.31z" class="s0" id="&lt;Compound Path&gt;"></path>
			<path d="m448.28 536.09c15.87 34.58 16.73 79.56-7.18 110.71-10.71 13.96-31.6 28.01-50.07 24.26-13.92-2.83-6.51-24.62-6.59-33.75-0.08-8.32-4.64-21.09-9.64-27.75-5.3-7.05-20.38-15.53-10.15-26.25 4.09-4.29 13.97-9.29 19.32-13.45 5.1-3.97 11.22-9.38 15.67-14.05 8.21-8.61 19.09-27.68 26.63-33.56 3.01-2.35 5.46-3.28 9.37-2.47 5.83 1.19 10.31 11.23 12.64 16.31z" class="s0" id="&lt;Compound Path&gt;"></path>
			<path d="m325.04 52.31c0 0-14.54-24.31-37.81-24.31-23.26 0-37.8 24.31-37.8 24.31-32.53 54.77-9.13 82.09-9.13 82.09 7.06 8.57 6.59 17.55 5.51 22.54-1.2 5.56 2.71 10.99 8.36 11.57 5.2 0.53 10.52-0.98 10.52-0.98 9.41-3.64 22.54-3.11 22.54-3.11 0 0 13.13-0.53 22.55 3.11 0 0 5.32 1.51 10.52 0.98 5.65-0.58 9.56-6.01 8.36-11.57-1.08-4.99-1.55-13.97 5.51-22.54 0 0 23.4-27.32-9.13-82.09z" class="s0" id="&lt;Path&gt;"></path>
			<path d="m388.82 200.85c0 0 5.41-29.22 56.03-22.69 0 0 92.74 6.86 113.74 133.66 0 0 6.81 50.01-13.34 57.64 0 0-20.63 7.18-35.07-34.3 0 0-18.99-49.83-44.57-51.96 0 0-23.67 0.06-30.61-19.2 0 0-13.66-32.61-37.17-46.98 0 0-12.11-6.17-9.01-16.17z" class="s0" id="&lt;Path&gt;"></path>
			<path d="m187.88 200.85c0 0-5.41-29.22-56.03-22.69 0 0-92.75 6.86-113.74 133.66 0 0-6.82 50.01 13.34 57.64 0 0 20.62 7.18 35.07-34.3 0 0 18.98-49.83 44.57-51.96 0 0 23.66 0.06 30.61-19.2 0 0 13.65-32.61 37.17-46.98 0 0 12.1-6.17 9.01-16.17z" class="s0" id="&lt;Path&gt;"></path>
		</g>
		<g id="&lt;Group&gt;">
			<g id="&lt;Group&gt;">
				<path d="m642.61 641.88q-4.53-0.01-8.07-1.9-3.54-1.9-5.52-5.27-1.98-3.37-1.98-7.67 0-4.37 1.98-7.71 1.98-3.34 5.47-5.23 3.48-1.9 8.01-1.9 4.36 0 7.99 2.21 3.62 2.21 5.21 6.4l-8.38 2.83q-0.63-1.36-2.07-2.24-1.44-0.88-3.2-0.88-1.76 0-3.09 0.83-1.33 0.81-2.09 2.29-0.77 1.47-0.77 3.4 0 1.92 0.77 3.37 0.76 1.44 2.15 2.29 1.39 0.85 3.14 0.85 1.76 0 3.17-0.91 1.42-0.9 2.1-2.37l8.38 2.83q-1.64 4.24-5.24 6.51-3.6 2.27-7.96 2.27z" class="s0" id="&lt;Compound Path&gt;"></path>
				<path d="m673.25 641.88q-4.47-0.01-7.87-1.9-3.4-1.9-5.35-5.24-1.95-3.34-1.95-7.7 0-4.37 1.89-7.71 1.9-3.34 5.33-5.23 3.42-1.9 7.78-1.9 4.48 0 7.9 1.9 3.43 1.89 5.33 5.23 1.89 3.34 1.89 7.71 0 4.36-1.89 7.7-1.9 3.34-5.3 5.24-3.39 1.89-7.76 1.9zm0-8.16q1.7 0 3.03-0.85 1.34-0.85 2.1-2.35 0.76-1.5 0.76-3.48 0-1.98-0.76-3.49-0.77-1.49-2.13-2.35-1.35-0.85-3.11-0.85-1.76 0-3.11 0.85-1.36 0.86-2.13 2.35-0.76 1.51-0.76 3.49 0 1.98 0.76 3.48 0.77 1.5 2.15 2.35 1.39 0.85 3.2 0.85z" class="s0" fill-rule="evenodd" id="&lt;Compound Path&gt;"></path>
				<path d="m703.16 641.88q-2.78-0.01-5.19-0.82-2.4-0.83-4.16-2.33-1.75-1.5-2.6-3.65l7.25-3.06q0.73 1.47 2.04 2.18 1.3 0.71 2.66 0.71 1.41 0 2.21-0.48 0.79-0.48 0.79-1.33 0-0.91-0.82-1.42-0.83-0.51-2.35-0.91l-2.44-0.62q-3.96-1.02-6.09-3.37-2.12-2.35-2.12-5.46 0-4.36 3-6.74 3-2.38 8.33-2.38 3 0 5.29 0.79 2.3 0.79 3.85 2.24 1.56 1.44 2.24 3.37l-7.02 2.89q-0.4-1.14-1.62-1.73-1.21-0.59-2.69-0.59-1.24-0.01-1.92 0.53-0.68 0.54-0.68 1.44 0 0.69 0.82 1.17 0.82 0.48 2.41 0.87l3 0.74q2.66 0.68 4.47 2.07 1.81 1.39 2.72 3.23 0.9 1.84 0.91 3.93 0 2.66-1.56 4.62-1.56 1.95-4.33 3.03-2.78 1.07-6.4 1.08z" class="s0" id="&lt;Compound Path&gt;"></path>
				<path d="m737.14 612.88v7.42h-19.71v-7.42zm-5.33 29q-5.04 0-7.5-2.41-2.46-2.41-2.46-6.88v-28.55h8.83v26.34q0 1.7 0.63 2.49 0.62 0.79 1.92 0.79 0.51 0 1.19-0.25 0.68-0.26 1.25-0.65l3.06 6.45q-1.36 1.14-3.26 1.9-1.9 0.77-3.66 0.77z" class="s0" id="&lt;Compound Path&gt;"></path>
				<path d="m751.52 641.88q-5.04 0-7.81-2.27-2.78-2.27-2.78-6.4 0-4.47 2.89-6.68 2.89-2.21 8.1-2.21h7.76v5.66h-4.42q-2.83 0-4.08 0.79-1.24 0.8-1.24 2.21 0 1.02 0.93 1.62 0.94 0.59 2.58 0.59 1.64 0 2.89-0.71 1.24-0.7 1.95-1.89 0.71-1.2 0.71-2.61h2.21q0 5.66-2.38 8.78-2.38 3.12-7.31 3.12zm7.7-0.68l-0.22-6.12v-7.99q0-2.26-0.4-3.96-0.39-1.7-1.42-2.66-1.01-0.97-3.05-0.97-1.58 0.01-2.78 0.74-1.19 0.74-2.03 2.04l-7.71-2.55q0.97-2.1 2.64-3.79 1.66-1.7 4.1-2.72 2.44-1.02 5.66-1.02 4.42 0 7.48 1.64 3.06 1.65 4.59 4.59 1.53 2.94 1.53 6.96l-0.12 15.81z" class="s0" id="&lt;Compound Path&gt;"></path>
				<path d="m795.07 612.88v28.32h-8.83v-28.32zm-2.32 13.65q0-4.59 1.84-7.65 1.84-3.06 4.65-4.59 2.8-1.53 5.86-1.53v8.61q-2.61 0-4.9 0.57-2.3 0.57-3.71 1.73-1.42 1.16-1.42 2.97z" class="s0" id="&lt;Compound Path&gt;"></path>
				<path d="m813.71 609.25q-1.98 0-3.48-1.5-1.51-1.5-1.51-3.48 0-2.1 1.51-3.54 1.5-1.44 3.48-1.45 2.04 0.01 3.51 1.45 1.47 1.44 1.47 3.54 0 1.98-1.47 3.48-1.47 1.5-3.51 1.5zm4.41 3.63v28.32h-8.83v-28.32z" class="s0" id="&lt;Compound Path&gt;"></path>
				<path d="m838.51 641.88q-4.53-0.01-8.07-1.9-3.54-1.9-5.52-5.27-1.98-3.37-1.98-7.67 0-4.37 1.98-7.71 1.98-3.34 5.46-5.23 3.49-1.9 8.02-1.9 4.36 0 7.98 2.21 3.63 2.21 5.21 6.4l-8.38 2.83q-0.62-1.36-2.07-2.24-1.44-0.88-3.19-0.88-1.76 0-3.09 0.83-1.33 0.81-2.1 2.29-0.76 1.47-0.76 3.4 0 1.92 0.76 3.37 0.77 1.44 2.16 2.29 1.38 0.85 3.14 0.85 1.75 0 3.17-0.91 1.42-0.9 2.1-2.37l8.38 2.83q-1.64 4.24-5.24 6.51-3.6 2.27-7.96 2.27z" class="s0" id="&lt;Compound Path&gt;"></path>
				<path d="m864.56 641.88q-5.04 0-7.81-2.27-2.78-2.27-2.78-6.4 0-4.47 2.89-6.68 2.89-2.21 8.1-2.21h7.76v5.66h-4.42q-2.83 0-4.08 0.79-1.24 0.8-1.24 2.21 0 1.02 0.93 1.62 0.93 0.59 2.58 0.59 1.64 0 2.89-0.71 1.24-0.7 1.95-1.89 0.71-1.2 0.71-2.61h2.21q0 5.66-2.38 8.78-2.38 3.12-7.31 3.12zm7.7-0.68l-0.22-6.12v-7.99q0-2.26-0.4-3.96-0.39-1.7-1.42-2.66-1.01-0.97-3.05-0.97-1.58 0.01-2.78 0.74-1.19 0.74-2.03 2.04l-7.71-2.55q0.96-2.1 2.64-3.79 1.66-1.7 4.1-2.72 2.43-1.02 5.66-1.02 4.42 0 7.48 1.64 3.06 1.65 4.59 4.59 1.53 2.94 1.53 6.96l-0.12 15.81z" class="s0" id="&lt;Compound Path&gt;"></path>
			</g>
		</g>
	</g>
</svg>